<svg xmlns="http://www.w3.org/2000/svg" width="18" height="18" fill="none" viewBox="0 0 18 18" preserveAspectRatio="xMidYMid meet" class="HAFDG"><g clip-path="url(#clip0_20_3388)"><mask id="mask0_20_3388" width="19" height="18" x="0" y="0" maskUnits="userSpaceOnUse" style="mask-type: luminance;"><path fill="#fff" d="M18.429 0h-18v18h18z"></path></mask><g mask="url(#mask0_20_3388)"><mask id="mask1_20_3388" width="19" height="18" x="0" y="0" maskUnits="userSpaceOnUse" style="mask-type: luminance;"><path fill="#fff" d="M.429 0h18v18h-18z"></path></mask><g mask="url(#mask1_20_3388)"><path fill="url(#paint0_linear_20_3388)" d="m7.11 6.141 1.617-3.22a.75.75 0 0 1 1.342.004l1.528 3.108a.83.83 0 0 0 .65.46l3.195.383a.8.8 0 0 1 .462 1.36l-2.528 2.493a.46.46 0 0 0-.134.387l.422 3.364a.88.88 0 0 1-1.286.885l-2.67-1.46a.66.66 0 0 0-.622-.008l-2.769 1.42a.79.79 0 0 1-1.063-.349.8.8 0 0 1-.079-.472l.22-1.546a2.35 2.35 0 0 1 1.253-1.759L9.72 9.622a.168.168 0 0 0-.099-.316l-3.758.541a2.08 2.08 0 0 1-1.607-.45l-1.25-1.02a.843.843 0 0 1-.124-1.18.85.85 0 0 1 .543-.303l3.208-.412a.63.63 0 0 0 .478-.34"></path><path fill="url(#paint1_linear_20_3388)" d="M9.955 3.494a.746.746 0 0 0-.829.396L7.507 7.111a.62.62 0 0 1-.477.341l-3.209.415a.84.84 0 0 0-.53.288l1.187.97c.374.306.859.44 1.337.371l3.756-.538c.222-.03.44.08.538.28a.523.523 0 0 1-.227.7l-.98.5 1.116-.161a.167.167 0 0 1 .098.316l-3.07 1.567a2.35 2.35 0 0 0-1.253 1.759l-.144 1.003a.44.44 0 0 0 .51.078l2.764-1.42c.3-.154.657-.149.952.013l2.67 1.46a.53.53 0 0 0 .316.06.527.527 0 0 0 .452-.588l-.419-3.367a.81.81 0 0 1 .235-.68l2.529-2.494a.5.5 0 0 0 .098-.149l-3.112-.373a.84.84 0 0 1-.65-.46l-.12-.25a1.2 1.2 0 0 1-.592-.564z"></path><path fill="url(#paint2_linear_20_3388)" d="M9.894 2.271a1.1 1.1 0 0 0-1.48.49l-1.62 3.224a.27.27 0 0 1-.206.146l-3.209.415A1.193 1.193 0 0 0 2.78 8.65l1.254 1.023a2.43 2.43 0 0 0 1.88.523l2.654-.382-2.081 1.064a2.7 2.7 0 0 0-1.44 2.021l-.223 1.546A1.147 1.147 0 0 0 6.48 15.63l2.766-1.42a.3.3 0 0 1 .29.005l2.671 1.458c.225.124.485.174.74.141a1.235 1.235 0 0 0 1.066-1.376l-.42-3.368a.11.11 0 0 1 .031-.09l2.529-2.494a1.148 1.148 0 0 0-.667-1.958l-3.198-.384a.48.48 0 0 1-.374-.265l-1.526-3.11a1.1 1.1 0 0 0-.493-.498m-.85.806a.397.397 0 0 1 .709.005l1.528 3.107c.177.362.523.607.922.655l3.199.384a.44.44 0 0 1 .384.492.46.46 0 0 1-.13.265l-2.528 2.494a.82.82 0 0 0-.235.68l.42 3.367a.527.527 0 0 1-.453.589.53.53 0 0 1-.316-.061l-2.67-1.46a1.02 1.02 0 0 0-.952-.01l-2.766 1.42a.439.439 0 0 1-.632-.46L5.744 13c.09-.642.49-1.2 1.063-1.493L9.88 9.938a.522.522 0 0 0-.308-.98l-3.759.538a1.72 1.72 0 0 1-1.334-.371l-1.25-1.023a.485.485 0 0 1 .24-.857l3.208-.414a.98.98 0 0 0 .75-.53z"></path></g></g></g><defs><linearGradient id="paint0_linear_20_3388" x1="9.42" x2="9.42" y1="2.506" y2="15.471" gradientUnits="userSpaceOnUse"><stop stop-color="#FFF0C2"></stop><stop offset="1" stop-color="#FFEBBA"></stop></linearGradient><linearGradient id="paint1_linear_20_3388" x1="9.523" x2="13.08" y1="3.476" y2="15.117" gradientUnits="userSpaceOnUse"><stop stop-color="#FFD147"></stop><stop offset="1" stop-color="#FFB526"></stop></linearGradient><linearGradient id="paint2_linear_20_3388" x1="9.42" x2="12.539" y1="2.152" y2="15.822" gradientUnits="userSpaceOnUse"><stop stop-color="#E58F0D"></stop><stop offset="1" stop-color="#EB7814"></stop></linearGradient><clipPath id="clip0_20_3388"><path fill="#fff" d="M.429 0h18v18h-18z"></path></clipPath></defs></svg>
<g clip-path="url(#clip0_20_3388)"><mask id="mask0_20_3388" width="19" height="18" x="0" y="0" maskUnits="userSpaceOnUse" style="mask-type: luminance;"><path fill="#fff" d="M18.429 0h-18v18h18z"></path></mask><g mask="url(#mask0_20_3388)"><mask id="mask1_20_3388" width="19" height="18" x="0" y="0" maskUnits="userSpaceOnUse" style="mask-type: luminance;"><path fill="#fff" d="M.429 0h18v18h-18z"></path></mask><g mask="url(#mask1_20_3388)"><path fill="url(#paint0_linear_20_3388)" d="m7.11 6.141 1.617-3.22a.75.75 0 0 1 1.342.004l1.528 3.108a.83.83 0 0 0 .65.46l3.195.383a.8.8 0 0 1 .462 1.36l-2.528 2.493a.46.46 0 0 0-.134.387l.422 3.364a.88.88 0 0 1-1.286.885l-2.67-1.46a.66.66 0 0 0-.622-.008l-2.769 1.42a.79.79 0 0 1-1.063-.349.8.8 0 0 1-.079-.472l.22-1.546a2.35 2.35 0 0 1 1.253-1.759L9.72 9.622a.168.168 0 0 0-.099-.316l-3.758.541a2.08 2.08 0 0 1-1.607-.45l-1.25-1.02a.843.843 0 0 1-.124-1.18.85.85 0 0 1 .543-.303l3.208-.412a.63.63 0 0 0 .478-.34"></path><path fill="url(#paint1_linear_20_3388)" d="M9.955 3.494a.746.746 0 0 0-.829.396L7.507 7.111a.62.62 0 0 1-.477.341l-3.209.415a.84.84 0 0 0-.53.288l1.187.97c.374.306.859.44 1.337.371l3.756-.538c.222-.03.44.08.538.28a.523.523 0 0 1-.227.7l-.98.5 1.116-.161a.167.167 0 0 1 .098.316l-3.07 1.567a2.35 2.35 0 0 0-1.253 1.759l-.144 1.003a.44.44 0 0 0 .51.078l2.764-1.42c.3-.154.657-.149.952.013l2.67 1.46a.53.53 0 0 0 .316.06.527.527 0 0 0 .452-.588l-.419-3.367a.81.81 0 0 1 .235-.68l2.529-2.494a.5.5 0 0 0 .098-.149l-3.112-.373a.84.84 0 0 1-.65-.46l-.12-.25a1.2 1.2 0 0 1-.592-.564z"></path><path fill="url(#paint2_linear_20_3388)" d="M9.894 2.271a1.1 1.1 0 0 0-1.48.49l-1.62 3.224a.27.27 0 0 1-.206.146l-3.209.415A1.193 1.193 0 0 0 2.78 8.65l1.254 1.023a2.43 2.43 0 0 0 1.88.523l2.654-.382-2.081 1.064a2.7 2.7 0 0 0-1.44 2.021l-.223 1.546A1.147 1.147 0 0 0 6.48 15.63l2.766-1.42a.3.3 0 0 1 .29.005l2.671 1.458c.225.124.485.174.74.141a1.235 1.235 0 0 0 1.066-1.376l-.42-3.368a.11.11 0 0 1 .031-.09l2.529-2.494a1.148 1.148 0 0 0-.667-1.958l-3.198-.384a.48.48 0 0 1-.374-.265l-1.526-3.11a1.1 1.1 0 0 0-.493-.498m-.85.806a.397.397 0 0 1 .709.005l1.528 3.107c.177.362.523.607.922.655l3.199.384a.44.44 0 0 1 .384.492.46.46 0 0 1-.13.265l-2.528 2.494a.82.82 0 0 0-.235.68l.42 3.367a.527.527 0 0 1-.453.589.53.53 0 0 1-.316-.061l-2.67-1.46a1.02 1.02 0 0 0-.952-.01l-2.766 1.42a.439.439 0 0 1-.632-.46L5.744 13c.09-.642.49-1.2 1.063-1.493L9.88 9.938a.522.522 0 0 0-.308-.98l-3.759.538a1.72 1.72 0 0 1-1.334-.371l-1.25-1.023a.485.485 0 0 1 .24-.857l3.208-.414a.98.98 0 0 0 .75-.53z"></path></g></g></g>
<mask id="mask0_20_3388" width="19" height="18" x="0" y="0" maskUnits="userSpaceOnUse" style="mask-type: luminance;"><path fill="#fff" d="M18.429 0h-18v18h18z"></path></mask>
<g mask="url(#mask0_20_3388)"><mask id="mask1_20_3388" width="19" height="18" x="0" y="0" maskUnits="userSpaceOnUse" style="mask-type: luminance;"><path fill="#fff" d="M.429 0h18v18h-18z"></path></mask><g mask="url(#mask1_20_3388)"><path fill="url(#paint0_linear_20_3388)" d="m7.11 6.141 1.617-3.22a.75.75 0 0 1 1.342.004l1.528 3.108a.83.83 0 0 0 .65.46l3.195.383a.8.8 0 0 1 .462 1.36l-2.528 2.493a.46.46 0 0 0-.134.387l.422 3.364a.88.88 0 0 1-1.286.885l-2.67-1.46a.66.66 0 0 0-.622-.008l-2.769 1.42a.79.79 0 0 1-1.063-.349.8.8 0 0 1-.079-.472l.22-1.546a2.35 2.35 0 0 1 1.253-1.759L9.72 9.622a.168.168 0 0 0-.099-.316l-3.758.541a2.08 2.08 0 0 1-1.607-.45l-1.25-1.02a.843.843 0 0 1-.124-1.18.85.85 0 0 1 .543-.303l3.208-.412a.63.63 0 0 0 .478-.34"></path><path fill="url(#paint1_linear_20_3388)" d="M9.955 3.494a.746.746 0 0 0-.829.396L7.507 7.111a.62.62 0 0 1-.477.341l-3.209.415a.84.84 0 0 0-.53.288l1.187.97c.374.306.859.44 1.337.371l3.756-.538c.222-.03.44.08.538.28a.523.523 0 0 1-.227.7l-.98.5 1.116-.161a.167.167 0 0 1 .098.316l-3.07 1.567a2.35 2.35 0 0 0-1.253 1.759l-.144 1.003a.44.44 0 0 0 .51.078l2.764-1.42c.3-.154.657-.149.952.013l2.67 1.46a.53.53 0 0 0 .316.06.527.527 0 0 0 .452-.588l-.419-3.367a.81.81 0 0 1 .235-.68l2.529-2.494a.5.5 0 0 0 .098-.149l-3.112-.373a.84.84 0 0 1-.65-.46l-.12-.25a1.2 1.2 0 0 1-.592-.564z"></path><path fill="url(#paint2_linear_20_3388)" d="M9.894 2.271a1.1 1.1 0 0 0-1.48.49l-1.62 3.224a.27.27 0 0 1-.206.146l-3.209.415A1.193 1.193 0 0 0 2.78 8.65l1.254 1.023a2.43 2.43 0 0 0 1.88.523l2.654-.382-2.081 1.064a2.7 2.7 0 0 0-1.44 2.021l-.223 1.546A1.147 1.147 0 0 0 6.48 15.63l2.766-1.42a.3.3 0 0 1 .29.005l2.671 1.458c.225.124.485.174.74.141a1.235 1.235 0 0 0 1.066-1.376l-.42-3.368a.11.11 0 0 1 .031-.09l2.529-2.494a1.148 1.148 0 0 0-.667-1.958l-3.198-.384a.48.48 0 0 1-.374-.265l-1.526-3.11a1.1 1.1 0 0 0-.493-.498m-.85.806a.397.397 0 0 1 .709.005l1.528 3.107c.177.362.523.607.922.655l3.199.384a.44.44 0 0 1 .384.492.46.46 0 0 1-.13.265l-2.528 2.494a.82.82 0 0 0-.235.68l.42 3.367a.527.527 0 0 1-.453.589.53.53 0 0 1-.316-.061l-2.67-1.46a1.02 1.02 0 0 0-.952-.01l-2.766 1.42a.439.439 0 0 1-.632-.46L5.744 13c.09-.642.49-1.2 1.063-1.493L9.88 9.938a.522.522 0 0 0-.308-.98l-3.759.538a1.72 1.72 0 0 1-1.334-.371l-1.25-1.023a.485.485 0 0 1 .24-.857l3.208-.414a.98.98 0 0 0 .75-.53z"></path></g></g>
<mask id="mask1_20_3388" width="19" height="18" x="0" y="0" maskUnits="userSpaceOnUse" style="mask-type: luminance;"><path fill="#fff" d="M.429 0h18v18h-18z"></path></mask>
<g mask="url(#mask1_20_3388)"><path fill="url(#paint0_linear_20_3388)" d="m7.11 6.141 1.617-3.22a.75.75 0 0 1 1.342.004l1.528 3.108a.83.83 0 0 0 .65.46l3.195.383a.8.8 0 0 1 .462 1.36l-2.528 2.493a.46.46 0 0 0-.134.387l.422 3.364a.88.88 0 0 1-1.286.885l-2.67-1.46a.66.66 0 0 0-.622-.008l-2.769 1.42a.79.79 0 0 1-1.063-.349.8.8 0 0 1-.079-.472l.22-1.546a2.35 2.35 0 0 1 1.253-1.759L9.72 9.622a.168.168 0 0 0-.099-.316l-3.758.541a2.08 2.08 0 0 1-1.607-.45l-1.25-1.02a.843.843 0 0 1-.124-1.18.85.85 0 0 1 .543-.303l3.208-.412a.63.63 0 0 0 .478-.34"></path><path fill="url(#paint1_linear_20_3388)" d="M9.955 3.494a.746.746 0 0 0-.829.396L7.507 7.111a.62.62 0 0 1-.477.341l-3.209.415a.84.84 0 0 0-.53.288l1.187.97c.374.306.859.44 1.337.371l3.756-.538c.222-.03.44.08.538.28a.523.523 0 0 1-.227.7l-.98.5 1.116-.161a.167.167 0 0 1 .098.316l-3.07 1.567a2.35 2.35 0 0 0-1.253 1.759l-.144 1.003a.44.44 0 0 0 .51.078l2.764-1.42c.3-.154.657-.149.952.013l2.67 1.46a.53.53 0 0 0 .316.06.527.527 0 0 0 .452-.588l-.419-3.367a.81.81 0 0 1 .235-.68l2.529-2.494a.5.5 0 0 0 .098-.149l-3.112-.373a.84.84 0 0 1-.65-.46l-.12-.25a1.2 1.2 0 0 1-.592-.564z"></path><path fill="url(#paint2_linear_20_3388)" d="M9.894 2.271a1.1 1.1 0 0 0-1.48.49l-1.62 3.224a.27.27 0 0 1-.206.146l-3.209.415A1.193 1.193 0 0 0 2.78 8.65l1.254 1.023a2.43 2.43 0 0 0 1.88.523l2.654-.382-2.081 1.064a2.7 2.7 0 0 0-1.44 2.021l-.223 1.546A1.147 1.147 0 0 0 6.48 15.63l2.766-1.42a.3.3 0 0 1 .29.005l2.671 1.458c.225.124.485.174.74.141a1.235 1.235 0 0 0 1.066-1.376l-.42-3.368a.11.11 0 0 1 .031-.09l2.529-2.494a1.148 1.148 0 0 0-.667-1.958l-3.198-.384a.48.48 0 0 1-.374-.265l-1.526-3.11a1.1 1.1 0 0 0-.493-.498m-.85.806a.397.397 0 0 1 .709.005l1.528 3.107c.177.362.523.607.922.655l3.199.384a.44.44 0 0 1 .384.492.46.46 0 0 1-.13.265l-2.528 2.494a.82.82 0 0 0-.235.68l.42 3.367a.527.527 0 0 1-.453.589.53.53 0 0 1-.316-.061l-2.67-1.46a1.02 1.02 0 0 0-.952-.01l-2.766 1.42a.439.439 0 0 1-.632-.46L5.744 13c.09-.642.49-1.2 1.063-1.493L9.88 9.938a.522.522 0 0 0-.308-.98l-3.759.538a1.72 1.72 0 0 1-1.334-.371l-1.25-1.023a.485.485 0 0 1 .24-.857l3.208-.414a.98.98 0 0 0 .75-.53z"></path></g>
<path fill="url(#paint0_linear_20_3388)" d="m7.11 6.141 1.617-3.22a.75.75 0 0 1 1.342.004l1.528 3.108a.83.83 0 0 0 .65.46l3.195.383a.8.8 0 0 1 .462 1.36l-2.528 2.493a.46.46 0 0 0-.134.387l.422 3.364a.88.88 0 0 1-1.286.885l-2.67-1.46a.66.66 0 0 0-.622-.008l-2.769 1.42a.79.79 0 0 1-1.063-.349.8.8 0 0 1-.079-.472l.22-1.546a2.35 2.35 0 0 1 1.253-1.759L9.72 9.622a.168.168 0 0 0-.099-.316l-3.758.541a2.08 2.08 0 0 1-1.607-.45l-1.25-1.02a.843.843 0 0 1-.124-1.18.85.85 0 0 1 .543-.303l3.208-.412a.63.63 0 0 0 .478-.34"></path>
<path fill="url(#paint1_linear_20_3388)" d="M9.955 3.494a.746.746 0 0 0-.829.396L7.507 7.111a.62.62 0 0 1-.477.341l-3.209.415a.84.84 0 0 0-.53.288l1.187.97c.374.306.859.44 1.337.371l3.756-.538c.222-.03.44.08.538.28a.523.523 0 0 1-.227.7l-.98.5 1.116-.161a.167.167 0 0 1 .098.316l-3.07 1.567a2.35 2.35 0 0 0-1.253 1.759l-.144 1.003a.44.44 0 0 0 .51.078l2.764-1.42c.3-.154.657-.149.952.013l2.67 1.46a.53.53 0 0 0 .316.06.527.527 0 0 0 .452-.588l-.419-3.367a.81.81 0 0 1 .235-.68l2.529-2.494a.5.5 0 0 0 .098-.149l-3.112-.373a.84.84 0 0 1-.65-.46l-.12-.25a1.2 1.2 0 0 1-.592-.564z"></path>
<path fill="url(#paint2_linear_20_3388)" d="M9.894 2.271a1.1 1.1 0 0 0-1.48.49l-1.62 3.224a.27.27 0 0 1-.206.146l-3.209.415A1.193 1.193 0 0 0 2.78 8.65l1.254 1.023a2.43 2.43 0 0 0 1.88.523l2.654-.382-2.081 1.064a2.7 2.7 0 0 0-1.44 2.021l-.223 1.546A1.147 1.147 0 0 0 6.48 15.63l2.766-1.42a.3.3 0 0 1 .29.005l2.671 1.458c.225.124.485.174.74.141a1.235 1.235 0 0 0 1.066-1.376l-.42-3.368a.11.11 0 0 1 .031-.09l2.529-2.494a1.148 1.148 0 0 0-.667-1.958l-3.198-.384a.48.48 0 0 1-.374-.265l-1.526-3.11a1.1 1.1 0 0 0-.493-.498m-.85.806a.397.397 0 0 1 .709.005l1.528 3.107c.177.362.523.607.922.655l3.199.384a.44.44 0 0 1 .384.492.46.46 0 0 1-.13.265l-2.528 2.494a.82.82 0 0 0-.235.68l.42 3.367a.527.527 0 0 1-.453.589.53.53 0 0 1-.316-.061l-2.67-1.46a1.02 1.02 0 0 0-.952-.01l-2.766 1.42a.439.439 0 0 1-.632-.46L5.744 13c.09-.642.49-1.2 1.063-1.493L9.88 9.938a.522.522 0 0 0-.308-.98l-3.759.538a1.72 1.72 0 0 1-1.334-.371l-1.25-1.023a.485.485 0 0 1 .24-.857l3.208-.414a.98.98 0 0 0 .75-.53z"></path>
<g mask="url(#mask1_20_3388)"><path fill="url(#paint0_linear_20_3388)" d="m7.11 6.141 1.617-3.22a.75.75 0 0 1 1.342.004l1.528 3.108a.83.83 0 0 0 .65.46l3.195.383a.8.8 0 0 1 .462 1.36l-2.528 2.493a.46.46 0 0 0-.134.387l.422 3.364a.88.88 0 0 1-1.286.885l-2.67-1.46a.66.66 0 0 0-.622-.008l-2.769 1.42a.79.79 0 0 1-1.063-.349.8.8 0 0 1-.079-.472l.22-1.546a2.35 2.35 0 0 1 1.253-1.759L9.72 9.622a.168.168 0 0 0-.099-.316l-3.758.541a2.08 2.08 0 0 1-1.607-.45l-1.25-1.02a.843.843 0 0 1-.124-1.18.85.85 0 0 1 .543-.303l3.208-.412a.63.63 0 0 0 .478-.34"></path><path fill="url(#paint1_linear_20_3388)" d="M9.955 3.494a.746.746 0 0 0-.829.396L7.507 7.111a.62.62 0 0 1-.477.341l-3.209.415a.84.84 0 0 0-.53.288l1.187.97c.374.306.859.44 1.337.371l3.756-.538c.222-.03.44.08.538.28a.523.523 0 0 1-.227.7l-.98.5 1.116-.161a.167.167 0 0 1 .098.316l-3.07 1.567a2.35 2.35 0 0 0-1.253 1.759l-.144 1.003a.44.44 0 0 0 .51.078l2.764-1.42c.3-.154.657-.149.952.013l2.67 1.46a.53.53 0 0 0 .316.06.527.527 0 0 0 .452-.588l-.419-3.367a.81.81 0 0 1 .235-.68l2.529-2.494a.5.5 0 0 0 .098-.149l-3.112-.373a.84.84 0 0 1-.65-.46l-.12-.25a1.2 1.2 0 0 1-.592-.564z"></path><path fill="url(#paint2_linear_20_3388)" d="M9.894 2.271a1.1 1.1 0 0 0-1.48.49l-1.62 3.224a.27.27 0 0 1-.206.146l-3.209.415A1.193 1.193 0 0 0 2.78 8.65l1.254 1.023a2.43 2.43 0 0 0 1.88.523l2.654-.382-2.081 1.064a2.7 2.7 0 0 0-1.44 2.021l-.223 1.546A1.147 1.147 0 0 0 6.48 15.63l2.766-1.42a.3.3 0 0 1 .29.005l2.671 1.458c.225.124.485.174.74.141a1.235 1.235 0 0 0 1.066-1.376l-.42-3.368a.11.11 0 0 1 .031-.09l2.529-2.494a1.148 1.148 0 0 0-.667-1.958l-3.198-.384a.48.48 0 0 1-.374-.265l-1.526-3.11a1.1 1.1 0 0 0-.493-.498m-.85.806a.397.397 0 0 1 .709.005l1.528 3.107c.177.362.523.607.922.655l3.199.384a.44.44 0 0 1 .384.492.46.46 0 0 1-.13.265l-2.528 2.494a.82.82 0 0 0-.235.68l.42 3.367a.527.527 0 0 1-.453.589.53.53 0 0 1-.316-.061l-2.67-1.46a1.02 1.02 0 0 0-.952-.01l-2.766 1.42a.439.439 0 0 1-.632-.46L5.744 13c.09-.642.49-1.2 1.063-1.493L9.88 9.938a.522.522 0 0 0-.308-.98l-3.759.538a1.72 1.72 0 0 1-1.334-.371l-1.25-1.023a.485.485 0 0 1 .24-.857l3.208-.414a.98.98 0 0 0 .75-.53z"></path></g>
<g mask="url(#mask0_20_3388)"><mask id="mask1_20_3388" width="19" height="18" x="0" y="0" maskUnits="userSpaceOnUse" style="mask-type: luminance;"><path fill="#fff" d="M.429 0h18v18h-18z"></path></mask><g mask="url(#mask1_20_3388)"><path fill="url(#paint0_linear_20_3388)" d="m7.11 6.141 1.617-3.22a.75.75 0 0 1 1.342.004l1.528 3.108a.83.83 0 0 0 .65.46l3.195.383a.8.8 0 0 1 .462 1.36l-2.528 2.493a.46.46 0 0 0-.134.387l.422 3.364a.88.88 0 0 1-1.286.885l-2.67-1.46a.66.66 0 0 0-.622-.008l-2.769 1.42a.79.79 0 0 1-1.063-.349.8.8 0 0 1-.079-.472l.22-1.546a2.35 2.35 0 0 1 1.253-1.759L9.72 9.622a.168.168 0 0 0-.099-.316l-3.758.541a2.08 2.08 0 0 1-1.607-.45l-1.25-1.02a.843.843 0 0 1-.124-1.18.85.85 0 0 1 .543-.303l3.208-.412a.63.63 0 0 0 .478-.34"></path><path fill="url(#paint1_linear_20_3388)" d="M9.955 3.494a.746.746 0 0 0-.829.396L7.507 7.111a.62.62 0 0 1-.477.341l-3.209.415a.84.84 0 0 0-.53.288l1.187.97c.374.306.859.44 1.337.371l3.756-.538c.222-.03.44.08.538.28a.523.523 0 0 1-.227.7l-.98.5 1.116-.161a.167.167 0 0 1 .098.316l-3.07 1.567a2.35 2.35 0 0 0-1.253 1.759l-.144 1.003a.44.44 0 0 0 .51.078l2.764-1.42c.3-.154.657-.149.952.013l2.67 1.46a.53.53 0 0 0 .316.06.527.527 0 0 0 .452-.588l-.419-3.367a.81.81 0 0 1 .235-.68l2.529-2.494a.5.5 0 0 0 .098-.149l-3.112-.373a.84.84 0 0 1-.65-.46l-.12-.25a1.2 1.2 0 0 1-.592-.564z"></path><path fill="url(#paint2_linear_20_3388)" d="M9.894 2.271a1.1 1.1 0 0 0-1.48.49l-1.62 3.224a.27.27 0 0 1-.206.146l-3.209.415A1.193 1.193 0 0 0 2.78 8.65l1.254 1.023a2.43 2.43 0 0 0 1.88.523l2.654-.382-2.081 1.064a2.7 2.7 0 0 0-1.44 2.021l-.223 1.546A1.147 1.147 0 0 0 6.48 15.63l2.766-1.42a.3.3 0 0 1 .29.005l2.671 1.458c.225.124.485.174.74.141a1.235 1.235 0 0 0 1.066-1.376l-.42-3.368a.11.11 0 0 1 .031-.09l2.529-2.494a1.148 1.148 0 0 0-.667-1.958l-3.198-.384a.48.48 0 0 1-.374-.265l-1.526-3.11a1.1 1.1 0 0 0-.493-.498m-.85.806a.397.397 0 0 1 .709.005l1.528 3.107c.177.362.523.607.922.655l3.199.384a.44.44 0 0 1 .384.492.46.46 0 0 1-.13.265l-2.528 2.494a.82.82 0 0 0-.235.68l.42 3.367a.527.527 0 0 1-.453.589.53.53 0 0 1-.316-.061l-2.67-1.46a1.02 1.02 0 0 0-.952-.01l-2.766 1.42a.439.439 0 0 1-.632-.46L5.744 13c.09-.642.49-1.2 1.063-1.493L9.88 9.938a.522.522 0 0 0-.308-.98l-3.759.538a1.72 1.72 0 0 1-1.334-.371l-1.25-1.023a.485.485 0 0 1 .24-.857l3.208-.414a.98.98 0 0 0 .75-.53z"></path></g></g>
<g clip-path="url(#clip0_20_3388)"><mask id="mask0_20_3388" width="19" height="18" x="0" y="0" maskUnits="userSpaceOnUse" style="mask-type: luminance;"><path fill="#fff" d="M18.429 0h-18v18h18z"></path></mask><g mask="url(#mask0_20_3388)"><mask id="mask1_20_3388" width="19" height="18" x="0" y="0" maskUnits="userSpaceOnUse" style="mask-type: luminance;"><path fill="#fff" d="M.429 0h18v18h-18z"></path></mask><g mask="url(#mask1_20_3388)"><path fill="url(#paint0_linear_20_3388)" d="m7.11 6.141 1.617-3.22a.75.75 0 0 1 1.342.004l1.528 3.108a.83.83 0 0 0 .65.46l3.195.383a.8.8 0 0 1 .462 1.36l-2.528 2.493a.46.46 0 0 0-.134.387l.422 3.364a.88.88 0 0 1-1.286.885l-2.67-1.46a.66.66 0 0 0-.622-.008l-2.769 1.42a.79.79 0 0 1-1.063-.349.8.8 0 0 1-.079-.472l.22-1.546a2.35 2.35 0 0 1 1.253-1.759L9.72 9.622a.168.168 0 0 0-.099-.316l-3.758.541a2.08 2.08 0 0 1-1.607-.45l-1.25-1.02a.843.843 0 0 1-.124-1.18.85.85 0 0 1 .543-.303l3.208-.412a.63.63 0 0 0 .478-.34"></path><path fill="url(#paint1_linear_20_3388)" d="M9.955 3.494a.746.746 0 0 0-.829.396L7.507 7.111a.62.62 0 0 1-.477.341l-3.209.415a.84.84 0 0 0-.53.288l1.187.97c.374.306.859.44 1.337.371l3.756-.538c.222-.03.44.08.538.28a.523.523 0 0 1-.227.7l-.98.5 1.116-.161a.167.167 0 0 1 .098.316l-3.07 1.567a2.35 2.35 0 0 0-1.253 1.759l-.144 1.003a.44.44 0 0 0 .51.078l2.764-1.42c.3-.154.657-.149.952.013l2.67 1.46a.53.53 0 0 0 .316.06.527.527 0 0 0 .452-.588l-.419-3.367a.81.81 0 0 1 .235-.68l2.529-2.494a.5.5 0 0 0 .098-.149l-3.112-.373a.84.84 0 0 1-.65-.46l-.12-.25a1.2 1.2 0 0 1-.592-.564z"></path><path fill="url(#paint2_linear_20_3388)" d="M9.894 2.271a1.1 1.1 0 0 0-1.48.49l-1.62 3.224a.27.27 0 0 1-.206.146l-3.209.415A1.193 1.193 0 0 0 2.78 8.65l1.254 1.023a2.43 2.43 0 0 0 1.88.523l2.654-.382-2.081 1.064a2.7 2.7 0 0 0-1.44 2.021l-.223 1.546A1.147 1.147 0 0 0 6.48 15.63l2.766-1.42a.3.3 0 0 1 .29.005l2.671 1.458c.225.124.485.174.74.141a1.235 1.235 0 0 0 1.066-1.376l-.42-3.368a.11.11 0 0 1 .031-.09l2.529-2.494a1.148 1.148 0 0 0-.667-1.958l-3.198-.384a.48.48 0 0 1-.374-.265l-1.526-3.11a1.1 1.1 0 0 0-.493-.498m-.85.806a.397.397 0 0 1 .709.005l1.528 3.107c.177.362.523.607.922.655l3.199.384a.44.44 0 0 1 .384.492.46.46 0 0 1-.13.265l-2.528 2.494a.82.82 0 0 0-.235.68l.42 3.367a.527.527 0 0 1-.453.589.53.53 0 0 1-.316-.061l-2.67-1.46a1.02 1.02 0 0 0-.952-.01l-2.766 1.42a.439.439 0 0 1-.632-.46L5.744 13c.09-.642.49-1.2 1.063-1.493L9.88 9.938a.522.522 0 0 0-.308-.98l-3.759.538a1.72 1.72 0 0 1-1.334-.371l-1.25-1.023a.485.485 0 0 1 .24-.857l3.208-.414a.98.98 0 0 0 .75-.53z"></path></g></g></g>
<defs><linearGradient id="paint0_linear_20_3388" x1="9.42" x2="9.42" y1="2.506" y2="15.471" gradientUnits="userSpaceOnUse"><stop stop-color="#FFF0C2"></stop><stop offset="1" stop-color="#FFEBBA"></stop></linearGradient><linearGradient id="paint1_linear_20_3388" x1="9.523" x2="13.08" y1="3.476" y2="15.117" gradientUnits="userSpaceOnUse"><stop stop-color="#FFD147"></stop><stop offset="1" stop-color="#FFB526"></stop></linearGradient><linearGradient id="paint2_linear_20_3388" x1="9.42" x2="12.539" y1="2.152" y2="15.822" gradientUnits="userSpaceOnUse"><stop stop-color="#E58F0D"></stop><stop offset="1" stop-color="#EB7814"></stop></linearGradient><clipPath id="clip0_20_3388"><path fill="#fff" d="M.429 0h18v18h-18z"></path></clipPath></defs>
<svg xmlns="http://www.w3.org/2000/svg" width="18" height="18" fill="none" viewBox="0 0 18 18" preserveAspectRatio="xMidYMid meet" class="HAFDG"><g clip-path="url(#clip0_20_3388)"><mask id="mask0_20_3388" width="19" height="18" x="0" y="0" maskUnits="userSpaceOnUse" style="mask-type: luminance;"><path fill="#fff" d="M18.429 0h-18v18h18z"></path></mask><g mask="url(#mask0_20_3388)"><mask id="mask1_20_3388" width="19" height="18" x="0" y="0" maskUnits="userSpaceOnUse" style="mask-type: luminance;"><path fill="#fff" d="M.429 0h18v18h-18z"></path></mask><g mask="url(#mask1_20_3388)"><path fill="url(#paint0_linear_20_3388)" d="m7.11 6.141 1.617-3.22a.75.75 0 0 1 1.342.004l1.528 3.108a.83.83 0 0 0 .65.46l3.195.383a.8.8 0 0 1 .462 1.36l-2.528 2.493a.46.46 0 0 0-.134.387l.422 3.364a.88.88 0 0 1-1.286.885l-2.67-1.46a.66.66 0 0 0-.622-.008l-2.769 1.42a.79.79 0 0 1-1.063-.349.8.8 0 0 1-.079-.472l.22-1.546a2.35 2.35 0 0 1 1.253-1.759L9.72 9.622a.168.168 0 0 0-.099-.316l-3.758.541a2.08 2.08 0 0 1-1.607-.45l-1.25-1.02a.843.843 0 0 1-.124-1.18.85.85 0 0 1 .543-.303l3.208-.412a.63.63 0 0 0 .478-.34"></path><path fill="url(#paint1_linear_20_3388)" d="M9.955 3.494a.746.746 0 0 0-.829.396L7.507 7.111a.62.62 0 0 1-.477.341l-3.209.415a.84.84 0 0 0-.53.288l1.187.97c.374.306.859.44 1.337.371l3.756-.538c.222-.03.44.08.538.28a.523.523 0 0 1-.227.7l-.98.5 1.116-.161a.167.167 0 0 1 .098.316l-3.07 1.567a2.35 2.35 0 0 0-1.253 1.759l-.144 1.003a.44.44 0 0 0 .51.078l2.764-1.42c.3-.154.657-.149.952.013l2.67 1.46a.53.53 0 0 0 .316.06.527.527 0 0 0 .452-.588l-.419-3.367a.81.81 0 0 1 .235-.68l2.529-2.494a.5.5 0 0 0 .098-.149l-3.112-.373a.84.84 0 0 1-.65-.46l-.12-.25a1.2 1.2 0 0 1-.592-.564z"></path><path fill="url(#paint2_linear_20_3388)" d="M9.894 2.271a1.1 1.1 0 0 0-1.48.49l-1.62 3.224a.27.27 0 0 1-.206.146l-3.209.415A1.193 1.193 0 0 0 2.78 8.65l1.254 1.023a2.43 2.43 0 0 0 1.88.523l2.654-.382-2.081 1.064a2.7 2.7 0 0 0-1.44 2.021l-.223 1.546A1.147 1.147 0 0 0 6.48 15.63l2.766-1.42a.3.3 0 0 1 .29.005l2.671 1.458c.225.124.485.174.74.141a1.235 1.235 0 0 0 1.066-1.376l-.42-3.368a.11.11 0 0 1 .031-.09l2.529-2.494a1.148 1.148 0 0 0-.667-1.958l-3.198-.384a.48.48 0 0 1-.374-.265l-1.526-3.11a1.1 1.1 0 0 0-.493-.498m-.85.806a.397.397 0 0 1 .709.005l1.528 3.107c.177.362.523.607.922.655l3.199.384a.44.44 0 0 1 .384.492.46.46 0 0 1-.13.265l-2.528 2.494a.82.82 0 0 0-.235.68l.42 3.367a.527.527 0 0 1-.453.589.53.53 0 0 1-.316-.061l-2.67-1.46a1.02 1.02 0 0 0-.952-.01l-2.766 1.42a.439.439 0 0 1-.632-.46L5.744 13c.09-.642.49-1.2 1.063-1.493L9.88 9.938a.522.522 0 0 0-.308-.98l-3.759.538a1.72 1.72 0 0 1-1.334-.371l-1.25-1.023a.485.485 0 0 1 .24-.857l3.208-.414a.98.98 0 0 0 .75-.53z"></path></g></g></g><defs><linearGradient id="paint0_linear_20_3388" x1="9.42" x2="9.42" y1="2.506" y2="15.471" gradientUnits="userSpaceOnUse"><stop stop-color="#FFF0C2"></stop><stop offset="1" stop-color="#FFEBBA"></stop></linearGradient><linearGradient id="paint1_linear_20_3388" x1="9.523" x2="13.08" y1="3.476" y2="15.117" gradientUnits="userSpaceOnUse"><stop stop-color="#FFD147"></stop><stop offset="1" stop-color="#FFB526"></stop></linearGradient><linearGradient id="paint2_linear_20_3388" x1="9.42" x2="12.539" y1="2.152" y2="15.822" gradientUnits="userSpaceOnUse"><stop stop-color="#E58F0D"></stop><stop offset="1" stop-color="#EB7814"></stop></linearGradient><clipPath id="clip0_20_3388"><path fill="#fff" d="M.429 0h18v18h-18z"></path></clipPath></defs></svg>